<svg width="283" height="316" viewBox="0 0 283 316" fill="none" xmlns="http://www.w3.org/2000/svg">
<path d="M70.7593 0.25C94.2883 0.25 117.817 0.25 141.346 0.25C143.052 2.583 144.76 4.917 146.466 7.25C164.641 32.095 177.241 50.023 176.971 50.655C176.321 52.243 150.639 87.731 150.142 87.74C149.468 87.752 139.827 74.538 125.19 53.543C121.852 48.754 118.57 44.479 117.896 44.043C117.222 43.607 97.1083 43.025 73.1983 42.75C58.7073 42.583 44.2173 42.417 29.7263 42.25C24.8263 35.417 19.9273 28.583 15.0273 21.75C6.94333 10.475 0.293288 1.025 0.250288 0.75C0.207288 0.475 31.9363 0.25 70.7593 0.25ZM1.17131 312.75C22.4833 284.125 29.4543 274.9 30.4113 273.782C32.1113 271.797 33.1593 271.75 75.5873 271.75C90.0663 271.75 104.544 271.75 119.023 271.75C120.881 269.25 122.739 266.75 124.597 264.25C126.455 261.75 128.313 259.25 130.171 256.75C130.24 257.167 130.309 257.583 130.378 258C130.652 259.654 124.533 268.423 120.333 272.396C117.539 275.039 117.168 275.876 118.056 277.535C118.674 278.689 120.665 279.807 122.822 280.212C124.86 280.594 128.359 282.335 130.599 284.079C135.812 288.139 138.719 289.75 140.829 289.75C141.756 289.75 143.323 290.482 144.312 291.377C145.301 292.272 147.916 293.052 150.123 293.11C154.681 293.229 156.531 291.504 164.661 279.56C167.171 275.881 170.111 272.618 173.171 271.75C157.371 293.837 150.381 303.516 147.436 307.507C145.651 309.926 143.867 312.344 142.082 314.763C118.597 314.677 95.1123 314.593 71.6273 314.507C32.8763 314.366 1.17131 313.913 1.17131 313.5C1.17131 313.25 1.17131 313 1.17131 312.75ZM130.171 256.75C136.585 247.611 143 238.471 149.414 229.332C150.374 230.528 151.334 231.726 152.294 232.922C157.941 239.961 176.171 266.154 176.171 267.228C176.171 267.83 175.491 269.093 174.671 270.036C174.171 270.607 173.671 271.179 173.171 271.75C170.111 272.618 167.171 275.881 164.661 279.56C156.531 291.504 154.681 293.229 150.123 293.11C147.916 293.052 145.301 292.272 144.312 291.377C143.323 290.482 141.756 289.75 140.829 289.75C138.719 289.75 135.812 288.139 130.599 284.079C128.359 282.335 124.86 280.594 122.822 280.212C120.665 279.807 118.674 278.689 118.056 277.535C117.168 275.876 117.539 275.039 120.333 272.396C124.533 268.423 130.652 259.654 130.378 258C130.309 257.583 130.24 257.167 130.171 256.75Z" fill="#2CB48D"/>
<path d="M130.171 256.75C128.313 259.25 126.455 261.75 124.597 264.25C122.739 266.75 120.881 269.25 119.023 271.75C104.544 271.75 90.0663 271.75 75.5873 271.75C33.1593 271.75 32.1113 271.797 30.4113 273.782C29.4543 274.9 22.4833 284.125 1.17131 312.75C1.17131 313 1.17131 313.25 1.17131 313.5C1.17131 313.913 32.8763 314.366 71.6273 314.507C95.1123 314.593 118.597 314.677 142.082 314.763C143.867 312.344 145.651 309.926 147.436 307.507C150.381 303.516 157.371 293.837 173.171 271.75M130.171 256.75C130.24 257.167 130.309 257.583 130.378 258C130.652 259.654 124.533 268.423 120.333 272.396C117.539 275.039 117.168 275.876 118.056 277.535C118.674 278.689 120.665 279.807 122.822 280.212C124.86 280.594 128.359 282.335 130.599 284.079C135.812 288.139 138.719 289.75 140.829 289.75C141.756 289.75 143.323 290.482 144.312 291.377C145.301 292.272 147.916 293.052 150.123 293.11C154.681 293.229 156.531 291.504 164.661 279.56C167.171 275.881 170.111 272.618 173.171 271.75M130.171 256.75C136.585 247.611 143 238.471 149.414 229.332C150.374 230.528 151.334 231.726 152.294 232.922C157.941 239.961 176.171 266.154 176.171 267.228C176.171 267.83 175.491 269.093 174.671 270.036C174.171 270.607 173.671 271.179 173.171 271.75M70.7593 0.25C94.2883 0.25 117.817 0.25 141.346 0.25C143.052 2.583 144.76 4.917 146.466 7.25C164.641 32.095 177.241 50.023 176.971 50.655C176.321 52.243 150.639 87.731 150.142 87.74C149.468 87.752 139.827 74.538 125.19 53.543C121.852 48.754 118.57 44.479 117.896 44.043C117.222 43.607 97.1083 43.025 73.1983 42.75C58.7073 42.583 44.2173 42.417 29.7263 42.25C24.8263 35.417 19.9273 28.583 15.0273 21.75C6.94333 10.475 0.293288 1.025 0.250288 0.75C0.207288 0.475 31.9363 0.25 70.7593 0.25Z" stroke="#2CB48D" stroke-width="0.5" stroke-linejoin="round"/>
<path d="M90.6714 121.75C83.5784 112.837 74.4664 100.488 65.8454 88.556C60.6204 81.325 55.3964 74.092 50.1714 66.861C59.3914 66.842 68.6124 66.825 77.8324 66.806C87.0524 66.787 96.2734 66.769 105.493 66.75C106.273 67.705 107.052 68.661 107.832 69.616C110.987 73.483 128.47 97.565 137.421 110.375C139.838 113.833 142.254 117.292 144.671 120.75C143.967 120.583 143.264 120.417 142.56 120.25C142.912 121.167 143.263 122.083 143.615 123C143.967 123.917 144.319 124.833 144.671 125.75C144.004 125.75 143.338 125.75 142.671 125.75C141.338 125.75 140.671 126.417 140.671 127.75C140.671 130.908 135.891 130.459 134.646 127.184C133.873 125.15 133.1 124.683 130.921 124.934C128.516 125.211 128.211 125.625 128.494 128.25C128.602 129.25 128.709 130.25 128.817 131.25C127.824 130.666 126.831 130.083 125.838 129.499C123.861 128.337 123.011 127.16 123.311 125.999C124.031 123.21 119.168 121.643 113.671 122.894C106.257 124.581 101.859 123.89 93.6714 119.75C91.3364 120.138 90.6624 120.587 90.6654 121C90.6674 121.25 90.6694 121.5 90.6714 121.75ZM228.241 144.328C232.941 137.771 237.221 131.583 237.761 130.578C238.661 128.895 240.431 128.75 260.101 128.75C267.221 128.75 274.341 128.75 281.461 128.75C281.681 134.167 281.911 139.583 282.141 145C282.511 153.938 282.671 166.425 282.491 172.75C282.381 176.583 282.281 180.417 282.171 184.25C275.001 184.25 267.841 184.25 260.671 184.25C253.501 184.25 246.341 184.25 239.171 184.25C235.921 179.927 232.671 175.603 229.421 171.28C224.061 164.147 219.681 157.847 219.681 157.28C219.691 156.713 223.541 150.885 228.241 144.328ZM280.741 171.262C279.941 167.148 277.801 167.092 273.141 171.063C270.961 172.92 268.191 174.958 267.001 175.59C264.731 176.791 261.471 182.22 262.441 183.19C263.381 184.123 276.371 183.816 279.041 182.798C281.141 182 281.531 181.233 281.431 178.048C281.371 175.959 281.061 172.905 280.741 171.262ZM134.671 207.75C125.282 221.083 115.894 234.417 106.505 247.75C97.2124 247.75 87.9184 247.75 78.6254 247.75C69.3324 247.75 60.0384 247.75 50.7454 247.75C55.6044 241 60.4644 234.25 65.3234 227.5C73.3414 216.362 82.0994 204.438 84.7864 201C86.4144 198.917 88.0434 196.833 89.6714 194.75C91.0044 193.75 92.3384 192.75 93.6714 191.75C93.9214 192.26 94.1714 192.77 94.4214 193.28C94.8334 194.121 96.6214 194.986 98.3934 195.203C100.165 195.42 102.097 195.896 102.687 196.26C103.277 196.624 104.395 196.395 105.173 195.749C106.271 194.838 107.77 195 111.879 196.476C115.898 197.92 117.706 198.127 119.395 197.337C121.177 196.504 121.884 196.659 122.949 198.115C124.11 199.703 124.794 199.794 128.367 198.832C130.616 198.226 133.158 197.999 134.015 198.328C134.895 198.666 137.118 197.799 142.671 193.75C139.958 197.998 137.891 201.148 136.327 203.491C134.763 205.834 133.75 207.75 134.077 207.75C134.275 207.75 134.473 207.75 134.671 207.75ZM164.671 110.75C168.001 106.417 171.341 102.083 174.671 97.75C174.921 97.767 175.171 97.783 175.421 97.8C176.281 97.857 176.701 97.458 180.551 93C182.091 91.212 183.841 89.75 184.441 89.75C185.041 89.75 185.681 88.512 185.851 87C186.141 84.531 186.521 84.278 189.601 84.528C192.901 84.796 192.971 84.736 191.331 82.923C189.001 80.352 190.181 76.964 192.831 78.618C193.841 79.25 194.671 80.638 194.671 81.702C194.671 82.766 195.541 84.248 196.611 84.996C198.801 86.527 198.811 88.52 196.641 91.148C195.321 92.751 195.351 92.873 196.951 92.36C198.221 91.952 199.071 92.568 199.941 94.52C201.621 98.324 203.601 99.672 207.671 99.777C209.591 99.827 212.021 100.404 213.051 101.059C214.751 102.14 214.881 101.988 214.421 99.41C214.141 97.848 214.571 95.261 215.361 93.66C216.541 91.295 217.461 90.75 220.241 90.75C222.651 90.75 223.671 90.296 223.671 89.219C223.671 88.377 224.341 87.431 225.151 87.119C225.961 86.807 227.511 85.121 228.591 83.372C230.201 80.769 230.401 79.473 229.661 76.222C229.131 73.846 229.131 71.885 229.681 71.338C230.181 70.835 234.211 70.214 238.631 69.958C248.851 69.367 249.061 70.461 240.421 79.18C236.981 82.65 234.301 86.164 234.471 86.989C234.631 87.814 232.301 91.811 229.281 95.87C226.271 99.929 222.841 104.6 221.671 106.25C220.501 107.9 216.881 112.85 213.631 117.25C210.381 121.65 207.711 125.812 207.671 127.75C206.571 131.346 193.821 148.763 192.331 148.704C191.691 148.679 185.211 140.129 177.921 129.704C173.501 123.386 169.091 117.068 164.671 110.75ZM89.6714 194.75C98.4474 182.204 107.224 169.658 116 157.112C113.663 153.968 111.325 150.825 108.988 147.681C105.131 142.494 99.4324 134.538 96.3234 130C94.4394 127.25 92.5554 124.5 90.6714 121.75C90.6694 121.5 90.6674 121.25 90.6654 121C90.6624 120.587 91.3364 120.138 93.6714 119.75C93.5094 120.167 93.3484 120.583 93.1864 121C92.9194 121.688 95.5264 126.015 98.9784 130.617C101.07 133.406 103.163 136.195 105.255 138.984C109.741 139.053 114.227 139.123 118.713 139.192C130.395 139.372 132.736 139.692 136.455 141.613C138.811 142.83 141.122 143.589 141.588 143.301C142.054 143.013 143.501 143.612 144.803 144.633C146.105 145.654 148.602 146.802 150.351 147.184C152.975 147.757 153.73 147.508 154.665 145.761C155.791 143.649 155.801 143.651 157.861 146.268C159.041 147.766 160.301 148.518 160.801 148.019C162.021 146.798 153.312 134.773 144.671 125.75C144.319 124.833 143.967 123.917 143.615 123C143.263 122.083 142.912 121.167 142.56 120.25C143.264 120.417 143.967 120.583 144.671 120.75C144.653 121 144.636 121.25 144.618 121.5C144.589 121.913 145.714 123.263 149.671 126.75C149.671 127.083 149.671 127.417 149.671 127.75C150.338 128.417 151.004 129.083 151.671 129.75C158.391 139 165.121 148.25 171.841 157.5C168.221 162.458 164.591 167.417 160.961 172.375C154.972 180.556 146.608 191.862 142.372 197.5C139.805 200.917 137.238 204.333 134.671 207.75C134.473 207.75 134.275 207.75 134.077 207.75C133.75 207.75 134.763 205.834 136.327 203.491C137.891 201.148 139.958 197.998 142.671 193.75C144.352 191.544 146.034 189.339 147.715 187.133C150.489 183.493 152.589 180.006 152.382 179.383C151.714 177.376 148.501 177.5 145.601 179.644C143.721 181.034 142.552 181.367 142.103 180.64C141.732 180.04 140.246 179.784 138.8 180.072C137.354 180.36 135.046 179.971 133.671 179.208C132.296 178.445 129.985 177.805 128.535 177.785C127.085 177.766 124.61 177.078 123.035 176.256C121.46 175.434 119.449 174.759 118.567 174.756C117.685 174.753 115.724 173.602 114.209 172.198C110.474 168.736 108.171 169.328 108.171 173.75C108.171 176.414 107.713 177.292 106.171 177.581C102.934 178.189 100.761 180.651 93.6714 191.75C92.3384 192.75 91.0044 193.75 89.6714 194.75ZM165.671 201.75C170.001 196.083 174.341 190.417 178.671 184.75C179.031 184.667 179.381 184.583 179.741 184.5C180.331 184.362 178.261 187.979 175.151 192.538C169.751 200.445 168.821 203.75 172.021 203.75C172.791 203.75 173.981 204.425 174.671 205.25C175.361 206.075 177.241 206.75 178.861 206.75C181.201 206.75 183.391 208.33 189.441 214.359C196.911 221.803 197.181 221.968 202.121 222C207.711 222.036 215.671 219.608 215.671 217.867C215.671 217.229 217.401 216.75 219.701 216.75C227.601 216.75 226.691 214.17 211.671 194.096C206.451 187.112 202.961 181.928 205.671 183.75C208.001 186.75 210.341 189.75 212.671 192.75C213.001 193.083 213.341 193.417 213.671 193.75C213.671 194.083 213.671 194.417 213.671 194.75C214.671 195.75 215.671 196.75 216.671 197.75C228.551 214.25 240.431 230.75 252.311 247.25C243.071 247.338 233.841 247.427 224.601 247.515C215.371 247.603 206.131 247.693 196.891 247.781C194.731 244.859 192.561 241.937 190.391 239.015C177.871 222.124 165.671 204.4 165.671 203.081C165.671 202.637 165.671 202.194 165.671 201.75ZM178.671 184.75C185.861 173.86 188.371 170.436 188.891 170.115C190.271 169.26 200.521 176.618 203.291 180.455C204.081 181.553 204.881 182.652 205.671 183.75C202.961 181.928 206.451 187.112 211.671 194.096C226.691 214.17 227.601 216.75 219.701 216.75C217.401 216.75 215.671 217.229 215.671 217.867C215.671 219.608 207.711 222.036 202.121 222C197.181 221.968 196.911 221.803 189.441 214.359C183.391 208.33 181.201 206.75 178.861 206.75C177.241 206.75 175.361 206.075 174.671 205.25C173.981 204.425 172.791 203.75 172.021 203.75C168.821 203.75 169.751 200.445 175.151 192.538C178.261 187.979 180.331 184.362 179.741 184.5C179.381 184.583 179.031 184.667 178.671 184.75ZM174.671 97.75C192.141 73.108 195.601 68.41 196.931 67.57C197.611 67.136 210.261 66.773 225.031 66.765C247.971 66.752 251.801 66.959 251.331 68.187C250.581 70.152 217.401 115.977 212.011 122.5C210.561 124.25 209.121 126 207.671 127.75C207.711 125.812 210.381 121.65 213.631 117.25C216.881 112.85 220.501 107.9 221.671 106.25C222.841 104.6 226.271 99.929 229.281 95.87C232.301 91.811 234.631 87.814 234.471 86.989C234.301 86.164 236.981 82.65 240.421 79.18C249.061 70.461 248.851 69.367 238.631 69.958C234.211 70.214 230.181 70.835 229.681 71.338C229.131 71.885 229.131 73.846 229.661 76.222C230.401 79.473 230.201 80.769 228.591 83.372C227.511 85.121 225.961 86.807 225.151 87.119C224.341 87.431 223.671 88.377 223.671 89.219C223.671 90.296 222.651 90.75 220.241 90.75C217.461 90.75 216.541 91.295 215.361 93.66C214.571 95.261 214.141 97.848 214.421 99.41C214.881 101.988 214.751 102.14 213.051 101.059C212.021 100.404 209.591 99.827 207.671 99.777C203.601 99.672 201.621 98.324 199.941 94.52C199.071 92.568 198.221 91.952 196.951 92.36C195.351 92.873 195.321 92.751 196.641 91.148C198.811 88.52 198.801 86.527 196.611 84.996C195.541 84.248 194.671 82.766 194.671 81.702C194.671 80.638 193.841 79.25 192.831 78.618C190.181 76.964 189.001 80.352 191.331 82.923C192.971 84.736 192.901 84.796 189.601 84.528C186.521 84.278 186.141 84.531 185.851 87C185.681 88.512 185.041 89.75 184.441 89.75C183.841 89.75 182.091 91.212 180.551 93C176.701 97.458 176.281 97.857 175.421 97.8C175.171 97.783 174.921 97.767 174.671 97.75ZM93.6714 191.75C100.761 180.651 102.934 178.189 106.171 177.581C107.713 177.292 108.171 176.414 108.171 173.75C108.171 169.328 110.474 168.736 114.209 172.198C115.724 173.602 117.685 174.753 118.567 174.756C119.449 174.759 121.46 175.434 123.035 176.256C124.61 177.078 127.085 177.766 128.535 177.785C129.985 177.805 132.296 178.445 133.671 179.208C135.046 179.971 137.354 180.36 138.8 180.072C140.246 179.784 141.732 180.04 142.103 180.64C142.552 181.367 143.721 181.034 145.601 179.644C148.501 177.5 151.714 177.376 152.382 179.383C152.589 180.006 150.489 183.493 147.715 187.133C146.034 189.339 144.352 191.544 142.671 193.75C137.118 197.799 134.895 198.666 134.015 198.328C133.158 197.999 130.616 198.226 128.367 198.832C124.794 199.794 124.11 199.703 122.949 198.115C121.884 196.659 121.177 196.504 119.395 197.337C117.706 198.127 115.898 197.92 111.879 196.476C107.77 195 106.271 194.838 105.173 195.749C104.395 196.395 103.277 196.624 102.687 196.26C102.097 195.896 100.165 195.42 98.3934 195.203C96.6214 194.986 94.8334 194.121 94.4214 193.28C94.1714 192.77 93.9214 192.26 93.6714 191.75ZM144.671 125.75C153.312 134.773 162.021 146.798 160.801 148.019C160.301 148.518 159.041 147.766 157.861 146.268C155.801 143.651 155.791 143.649 154.665 145.761C153.73 147.508 152.975 147.757 150.351 147.184C148.602 146.802 146.105 145.654 144.803 144.633C143.501 143.612 142.054 143.013 141.588 143.301C141.122 143.589 138.811 142.83 136.455 141.613C132.736 139.692 130.395 139.372 118.713 139.192C114.227 139.123 109.741 139.053 105.255 138.984C103.163 136.195 101.07 133.406 98.9784 130.617C95.5264 126.015 92.9194 121.688 93.1864 121C93.3484 120.583 93.5094 120.167 93.6714 119.75C101.859 123.89 106.257 124.581 113.671 122.894C119.168 121.643 124.031 123.21 123.311 125.999C123.011 127.16 123.861 128.337 125.838 129.499C126.831 130.083 127.824 130.666 128.817 131.25C128.709 130.25 128.602 129.25 128.494 128.25C128.211 125.625 128.516 125.211 130.921 124.934C133.1 124.683 133.873 125.15 134.646 127.184C135.891 130.459 140.671 130.908 140.671 127.75C140.671 126.417 141.338 125.75 142.671 125.75C143.338 125.75 144.004 125.75 144.671 125.75ZM280.741 171.262C281.061 172.905 281.371 175.959 281.431 178.048C281.531 181.233 281.141 182 279.041 182.798C276.371 183.816 263.381 184.123 262.441 183.19C261.471 182.22 264.731 176.791 267.001 175.59C268.191 174.958 270.961 172.92 273.141 171.063C277.801 167.092 279.941 167.148 280.741 171.262ZM144.671 120.75C146.338 122.75 148.004 124.75 149.671 126.75C145.714 123.263 144.589 121.913 144.618 121.5C144.636 121.25 144.653 121 144.671 120.75Z" fill="#2C77A9"/>
</svg>
