<svg width="1280" height="1280" viewBox="0 0 1280 1280" fill="none" xmlns="http://www.w3.org/2000/svg">
<path d="M711.684 558.5C712.825 554.204 713.63 554 729.467 554C748.958 554 748 553.138 748 570.674C748 587.821 748.94 587 729.294 587C716.53 587 714.036 586.75 712.872 585.35C711.472 583.667 710.548 562.777 711.684 558.5Z" fill="white"/>
<path d="M371.492 607.25C373.079 605.047 373.526 605 392.934 605C410.142 605 412.936 605.218 414.128 606.652C415.224 607.971 415.601 616.678 416 649.902C416.546 695.35 416.378 694.074 422.657 700.411C426.779 704.571 431.572 706.262 439.138 706.225C450.372 706.17 459.195 700.423 462.085 691.277C462.895 688.713 463.408 674.669 463.681 647.552C463.949 620.978 464.445 607.168 465.164 606.302C466.648 604.514 503.02 604.42 504.8 606.2C505.46 606.86 506 609.935 506 613.033C506 616.131 506.287 618.954 506.639 619.306C506.991 619.658 509.804 617.634 512.89 614.809C519.242 608.994 527.962 604.525 535.891 603.021C543.488 601.58 556.314 601.783 564.28 603.471C573.754 605.479 580.236 609.341 587.51 617.311C589.595 619.596 591.681 621.88 593.766 624.165C595.388 622.43 597.011 620.695 598.633 618.96C608.912 607.967 619.663 603.1 635.508 602.265C661.021 600.921 677.576 609.419 686.622 628.5C692.292 640.462 693 647.795 693 694.574C693 708.345 693 722.116 693 735.887C692.259 736.406 691.518 736.924 690.777 737.443C687.509 739.732 653.491 739.732 650.223 737.443C649.482 736.924 648.741 736.406 648 735.887C648 723.118 648 710.349 648 697.58C648 675.795 647.561 656.96 646.983 653.91C645.026 643.59 638.505 637.558 627.955 636.308C618.347 635.17 609.102 639.958 604.863 648.268C601.895 654.085 601.078 666.059 601.036 704.275C601.024 715.2 601.012 726.124 601 737.049C600.145 737.374 599.29 737.7 598.435 738.025C594.368 739.571 560.765 739.281 558.576 737.68C556.899 736.454 556.737 733.4 556.289 694.93C555.818 654.475 555.753 653.38 553.524 648.393C549.712 639.865 541.348 635.272 531.484 636.29C521.558 637.314 514.899 642.552 511.42 652.069C510.057 655.799 509.736 662.816 509.399 696.39C509.032 732.92 508.851 736.393 507.249 737.609C505.951 738.594 500.919 738.944 487.75 738.968C466.364 739.006 466 738.838 466 728.9C466 726.867 466 724.832 466 722.799C464.083 724.555 462.167 726.311 460.25 728.067C450.547 736.956 438.887 741 422.953 741C413.87 741 407.494 739.906 399.79 737.023C391.845 734.05 381.337 724.158 377.202 715.759C371.045 703.253 370.779 700.832 370.304 653C369.917 614.041 370.04 609.265 371.492 607.25Z" fill="white"/>
<path d="M197.428 559.455C199.584 558.042 205.371 557.906 249.178 558.228C265.619 558.349 282.059 558.47 298.5 558.591C301.5 559.513 304.5 560.435 307.5 561.357C329.089 567.992 341.307 579.404 347.269 598.5C350.521 608.914 350.302 624.819 346.77 634.764C345.351 638.759 342.754 644.265 340.999 647.001C336.957 653.3 328.155 661.381 321.861 664.571C319.188 665.926 317 667.529 317 668.134C317 669.44 328.965 691.752 342.391 715.486C347.676 724.828 352 733.475 352 734.701C352 735.927 351.13 737.396 350.066 737.965C346.876 739.672 309.511 739.316 306.088 737.546C303.86 736.394 300.038 729.897 287.699 706.296C279.131 689.908 271.626 675.938 271.021 675.25C269.92 673.999 245.815 673.367 242.832 674.51C241.754 674.923 241.565 680.629 241.84 704.466C241.953 714.281 242.066 724.097 242.179 733.912C241.331 734.76 240.483 735.608 239.635 736.456C238.787 737.304 237.939 738.152 237.091 739C230.743 739 224.393 739 218.045 739C200.333 739 198.86 738.86 197 737C195.031 735.031 195 733.667 195 648.023C195 619.031 195 590.038 195 561.046C195.809 560.516 196.619 559.985 197.428 559.455ZM300.458 606C298.245 601.061 294.236 597.108 289 594.702C285.016 592.871 282.075 592.587 263.348 592.219C243.427 591.828 242.169 591.912 241.707 593.652C241.437 594.668 241.28 605.175 241.358 617C241.405 624.167 241.453 631.333 241.5 638.5C247.667 638.604 253.833 638.708 260 638.812C271.011 638.998 280.573 638.677 283.622 638.019C290.697 636.492 297.228 632.127 299.53 627.385C302.065 622.164 302.563 610.698 300.458 606Z" fill="white"/>
<path d="M760.2 606.2C760.86 605.54 763.222 604.996 765.45 604.991C767.677 604.986 771.862 604.699 774.75 604.352C776.5 604.142 778.25 603.931 780 603.721C780 597.246 780 590.77 780 584.295C780 572.816 780.423 564.077 781.035 562.934C781.992 561.147 783.274 561 797.913 561C811.454 561 813.955 561.241 815.128 562.66C816.189 563.943 816.497 568.763 816.487 583.91C816.479 596.009 816.861 603.781 817.487 604.235C818.044 604.639 824.823 604.977 832.55 604.985C842.126 604.995 846.982 605.382 847.8 606.2C848.612 607.012 849 611.676 849 620.643C849 637.668 849.754 637 830.527 637C825.851 637 821.176 637 816.5 637C816.608 646.75 816.716 656.5 816.824 666.25C817.258 705.414 817.097 705.107 837.5 705.796C846.106 706.087 848.772 706.517 849.75 707.775C850.606 708.876 851 713.556 851 722.634C851 739.576 851.608 739.007 833.527 738.983C806.572 738.947 793.44 732.846 785.527 716.685C780.724 706.876 780.043 700.641 780.02 666.25C780.013 656.5 780.007 646.75 780 637C777.145 637 774.289 637 771.434 637C758.596 637 759 637.514 759 621.165C759 611.792 759.383 607.017 760.2 606.2Z" fill="white"/>
<path d="M713.829 606.655C715.355 605.274 718.078 605 730.294 605C743.741 605 745.014 605.157 745.965 606.934C746.648 608.209 747 630.635 747 672.774C747 694.076 747 715.377 747 736.679C746.151 737.066 745.302 737.452 744.453 737.839C740.404 739.684 716.984 739.377 714.223 737.443C713.482 736.924 712.741 736.406 712 735.887C712 714.624 712 693.361 712 672.098C712 611.571 712.094 608.225 713.829 606.655Z" fill="white"/>
<path d="M917.588 496.5C941.117 496.5 964.646 496.5 988.175 496.5C989.881 498.833 991.589 501.167 993.295 503.5C1011.47 528.345 1024.07 546.273 1023.8 546.905C1023.15 548.493 997.468 583.981 996.971 583.99C996.297 584.002 986.656 570.788 972.019 549.793C968.681 545.004 965.399 540.729 964.725 540.293C964.051 539.857 943.937 539.275 920.027 539C905.536 538.833 891.046 538.667 876.555 538.5C871.655 531.667 866.756 524.833 861.856 518C853.772 506.725 847.122 497.275 847.079 497C847.036 496.725 878.765 496.5 917.588 496.5ZM848 809C869.312 780.375 876.283 771.15 877.24 770.032C878.94 768.047 879.988 768 922.416 768C936.895 768 951.373 768 965.852 768C967.71 765.5 969.568 763 971.426 760.5C973.284 758 975.142 755.5 977 753C977.069 753.417 977.138 753.833 977.207 754.25C977.481 755.904 971.362 764.673 967.162 768.646C964.368 771.289 963.997 772.126 964.885 773.785C965.503 774.939 967.494 776.057 969.651 776.462C971.689 776.844 975.188 778.585 977.428 780.329C982.641 784.389 985.548 786 987.658 786C988.585 786 990.152 786.732 991.141 787.627C992.13 788.522 994.745 789.302 996.952 789.36C1001.51 789.479 1003.36 787.754 1011.49 775.81C1014 772.131 1016.94 768.868 1020 768C1004.2 790.087 997.21 799.766 994.265 803.757C992.48 806.176 990.696 808.594 988.911 811.013C965.426 810.927 941.941 810.843 918.456 810.757C879.705 810.616 848 810.163 848 809.75C848 809.5 848 809.25 848 809ZM977 753C983.414 743.861 989.829 734.721 996.243 725.582C997.203 726.778 998.163 727.976 999.123 729.172C1004.77 736.211 1023 762.404 1023 763.478C1023 764.08 1022.32 765.343 1021.5 766.286C1021 766.857 1020.5 767.429 1020 768C1016.94 768.868 1014 772.131 1011.49 775.81C1003.36 787.754 1001.51 789.479 996.952 789.36C994.745 789.302 992.13 788.522 991.141 787.627C990.152 786.732 988.585 786 987.658 786C985.548 786 982.641 784.389 977.428 780.329C975.188 778.585 971.689 776.844 969.651 776.462C967.494 776.057 965.503 774.939 964.885 773.785C963.997 772.126 964.368 771.289 967.162 768.646C971.362 764.673 977.481 755.904 977.207 754.25C977.138 753.833 977.069 753.417 977 753Z" fill="#2CB48D"/>
<path d="M977 753C975.142 755.5 973.284 758 971.426 760.5C969.568 763 967.71 765.5 965.852 768C951.373 768 936.895 768 922.416 768C879.988 768 878.94 768.047 877.24 770.032C876.283 771.15 869.312 780.375 848 809C848 809.25 848 809.5 848 809.75C848 810.163 879.705 810.616 918.456 810.757C941.941 810.843 965.426 810.927 988.911 811.013C990.696 808.594 992.48 806.176 994.265 803.757C997.21 799.766 1004.2 790.087 1020 768M977 753C977.069 753.417 977.138 753.833 977.207 754.25C977.481 755.904 971.362 764.673 967.162 768.646C964.368 771.289 963.997 772.126 964.885 773.785C965.503 774.939 967.494 776.057 969.651 776.462C971.689 776.844 975.188 778.585 977.428 780.329C982.641 784.389 985.548 786 987.658 786C988.585 786 990.152 786.732 991.141 787.627C992.13 788.522 994.745 789.302 996.952 789.36C1001.51 789.479 1003.36 787.754 1011.49 775.81C1014 772.131 1016.94 768.868 1020 768M977 753C983.414 743.861 989.829 734.721 996.243 725.582C997.203 726.778 998.163 727.976 999.123 729.172C1004.77 736.211 1023 762.404 1023 763.478C1023 764.08 1022.32 765.343 1021.5 766.286C1021 766.857 1020.5 767.429 1020 768M917.588 496.5C941.117 496.5 964.646 496.5 988.175 496.5C989.881 498.833 991.589 501.167 993.295 503.5C1011.47 528.345 1024.07 546.273 1023.8 546.905C1023.15 548.493 997.468 583.981 996.971 583.99C996.297 584.002 986.656 570.788 972.019 549.793C968.681 545.004 965.399 540.729 964.725 540.293C964.051 539.857 943.937 539.275 920.027 539C905.536 538.833 891.046 538.667 876.555 538.5C871.655 531.667 866.756 524.833 861.856 518C853.772 506.725 847.122 497.275 847.079 497C847.036 496.725 878.765 496.5 917.588 496.5Z" stroke="#2CB48D" stroke-width="0.5" stroke-linejoin="round"/>
<path d="M935 618C927.907 609.087 918.795 596.738 910.174 584.806C904.949 577.575 899.725 570.342 894.5 563.111C903.72 563.092 912.941 563.075 922.161 563.056C931.381 563.037 940.602 563.019 949.822 563C950.602 563.955 951.381 564.911 952.161 565.866C955.316 569.733 972.799 593.815 981.75 606.625C984.167 610.083 986.583 613.542 989 617C988.296 616.833 987.593 616.667 986.889 616.5C987.241 617.417 987.592 618.333 987.944 619.25C988.296 620.167 988.648 621.083 989 622C988.333 622 987.667 622 987 622C985.667 622 985 622.667 985 624C985 627.158 980.22 626.709 978.975 623.434C978.202 621.4 977.429 620.933 975.25 621.184C972.845 621.461 972.54 621.875 972.823 624.5C972.931 625.5 973.038 626.5 973.146 627.5C972.153 626.916 971.16 626.333 970.167 625.749C968.19 624.587 967.34 623.41 967.64 622.249C968.36 619.46 963.497 617.893 958 619.144C950.586 620.831 946.188 620.14 938 616C935.665 616.388 934.991 616.837 934.994 617.25C934.996 617.5 934.998 617.75 935 618ZM1072.57 640.578C1077.27 634.021 1081.55 627.833 1082.09 626.828C1082.99 625.145 1084.76 625 1104.43 625C1111.55 625 1118.67 625 1125.79 625C1126.01 630.417 1126.24 635.833 1126.47 641.25C1126.84 650.188 1127 662.675 1126.82 669C1126.71 672.833 1126.61 676.667 1126.5 680.5C1119.33 680.5 1112.17 680.5 1105 680.5C1097.83 680.5 1090.67 680.5 1083.5 680.5C1080.25 676.177 1077 671.853 1073.75 667.53C1068.39 660.397 1064.01 654.097 1064.01 653.53C1064.02 652.963 1067.87 647.135 1072.57 640.578ZM1125.07 667.512C1124.27 663.398 1122.13 663.342 1117.47 667.313C1115.29 669.17 1112.52 671.208 1111.33 671.84C1109.06 673.041 1105.8 678.47 1106.77 679.44C1107.71 680.373 1120.7 680.066 1123.37 679.048C1125.47 678.25 1125.86 677.483 1125.76 674.298C1125.7 672.209 1125.39 669.155 1125.07 667.512ZM979 704C969.611 717.333 960.223 730.667 950.834 744C941.541 744 932.247 744 922.954 744C913.661 744 904.367 744 895.074 744C899.933 737.25 904.793 730.5 909.652 723.75C917.67 712.612 926.428 700.688 929.115 697.25C930.743 695.167 932.372 693.083 934 691C935.333 690 936.667 689 938 688C938.25 688.51 938.5 689.02 938.75 689.53C939.162 690.371 940.95 691.236 942.722 691.453C944.494 691.67 946.426 692.146 947.016 692.51C947.606 692.874 948.724 692.645 949.502 691.999C950.6 691.088 952.099 691.25 956.208 692.726C960.227 694.17 962.035 694.377 963.724 693.587C965.506 692.754 966.213 692.909 967.278 694.365C968.439 695.953 969.123 696.044 972.696 695.082C974.945 694.476 977.487 694.249 978.344 694.578C979.224 694.916 981.447 694.049 987 690C984.287 694.248 982.22 697.398 980.656 699.741C979.092 702.084 978.079 704 978.406 704C978.604 704 978.802 704 979 704ZM1009 607C1012.33 602.667 1015.67 598.333 1019 594C1019.25 594.017 1019.5 594.033 1019.75 594.05C1020.61 594.107 1021.03 593.708 1024.88 589.25C1026.42 587.462 1028.17 586 1028.77 586C1029.37 586 1030.01 584.762 1030.18 583.25C1030.47 580.781 1030.85 580.528 1033.93 580.778C1037.23 581.046 1037.3 580.986 1035.66 579.173C1033.33 576.602 1034.51 573.214 1037.16 574.868C1038.17 575.5 1039 576.888 1039 577.952C1039 579.016 1039.87 580.498 1040.94 581.246C1043.13 582.777 1043.14 584.77 1040.97 587.398C1039.65 589.001 1039.68 589.123 1041.28 588.61C1042.55 588.202 1043.4 588.818 1044.27 590.77C1045.95 594.574 1047.93 595.922 1052 596.027C1053.92 596.077 1056.35 596.654 1057.38 597.309C1059.08 598.39 1059.21 598.238 1058.75 595.66C1058.47 594.098 1058.9 591.511 1059.69 589.91C1060.87 587.545 1061.79 587 1064.57 587C1066.98 587 1068 586.546 1068 585.469C1068 584.627 1068.67 583.681 1069.48 583.369C1070.29 583.057 1071.84 581.371 1072.92 579.622C1074.53 577.019 1074.73 575.723 1073.99 572.472C1073.46 570.096 1073.46 568.135 1074.01 567.588C1074.51 567.085 1078.54 566.464 1082.96 566.208C1093.18 565.617 1093.39 566.711 1084.75 575.43C1081.31 578.9 1078.63 582.414 1078.8 583.239C1078.96 584.064 1076.63 588.061 1073.61 592.12C1070.6 596.179 1067.17 600.85 1066 602.5C1064.83 604.15 1061.21 609.1 1057.96 613.5C1054.71 617.9 1052.04 622.062 1052 624C1050.9 627.596 1038.15 645.013 1036.66 644.954C1036.02 644.929 1029.54 636.379 1022.25 625.954C1017.83 619.636 1013.42 613.318 1009 607ZM934 691C942.776 678.454 951.553 665.908 960.329 653.362C957.992 650.218 955.654 647.075 953.317 643.931C949.46 638.744 943.761 630.788 940.652 626.25C938.768 623.5 936.884 620.75 935 618C934.998 617.75 934.996 617.5 934.994 617.25C934.991 616.837 935.665 616.388 938 616C937.838 616.417 937.677 616.833 937.515 617.25C937.248 617.938 939.855 622.265 943.307 626.867C945.399 629.656 947.492 632.445 949.584 635.234C954.07 635.303 958.556 635.373 963.042 635.442C974.724 635.622 977.065 635.942 980.784 637.863C983.14 639.08 985.451 639.839 985.917 639.551C986.383 639.263 987.83 639.862 989.132 640.883C990.434 641.904 992.931 643.052 994.68 643.434C997.304 644.007 998.059 643.758 998.994 642.011C1000.12 639.899 1000.13 639.901 1002.19 642.518C1003.37 644.016 1004.63 644.768 1005.13 644.269C1006.35 643.048 997.641 631.023 989 622C988.648 621.083 988.296 620.167 987.944 619.25C987.592 618.333 987.241 617.417 986.889 616.5C987.593 616.667 988.296 616.833 989 617C988.982 617.25 988.965 617.5 988.947 617.75C988.918 618.163 990.043 619.513 994 623C994 623.333 994 623.667 994 624C994.667 624.667 995.333 625.333 996 626C1002.72 635.25 1009.45 644.5 1016.17 653.75C1012.55 658.708 1008.92 663.667 1005.29 668.625C999.301 676.806 990.937 688.112 986.701 693.75C984.134 697.167 981.567 700.583 979 704C978.802 704 978.604 704 978.406 704C978.079 704 979.092 702.084 980.656 699.741C982.22 697.398 984.287 694.248 987 690C988.681 687.794 990.363 685.589 992.044 683.383C994.818 679.743 996.918 676.256 996.711 675.633C996.043 673.626 992.83 673.75 989.93 675.894C988.05 677.284 986.881 677.617 986.432 676.89C986.061 676.29 984.575 676.034 983.129 676.322C981.683 676.61 979.375 676.221 978 675.458C976.625 674.695 974.314 674.055 972.864 674.035C971.414 674.016 968.939 673.328 967.364 672.506C965.789 671.684 963.778 671.009 962.896 671.006C962.014 671.003 960.053 669.852 958.538 668.448C954.803 664.986 952.5 665.578 952.5 670C952.5 672.664 952.042 673.542 950.5 673.831C947.263 674.439 945.09 676.901 938 688C936.667 689 935.333 690 934 691ZM1010 698C1014.33 692.333 1018.67 686.667 1023 681C1023.36 680.917 1023.71 680.833 1024.07 680.75C1024.66 680.612 1022.59 684.229 1019.48 688.788C1014.08 696.695 1013.15 700 1016.35 700C1017.12 700 1018.31 700.675 1019 701.5C1019.69 702.325 1021.57 703 1023.19 703C1025.53 703 1027.72 704.58 1033.77 710.609C1041.24 718.053 1041.51 718.218 1046.45 718.25C1052.04 718.286 1060 715.858 1060 714.117C1060 713.479 1061.73 713 1064.03 713C1071.93 713 1071.02 710.42 1056 690.346C1050.78 683.362 1047.29 678.178 1050 680C1052.33 683 1054.67 686 1057 689C1057.33 689.333 1057.67 689.667 1058 690C1058 690.333 1058 690.667 1058 691C1059 692 1060 693 1061 694C1072.88 710.5 1084.76 727 1096.64 743.5C1087.4 743.588 1078.17 743.677 1068.93 743.765C1059.7 743.853 1050.46 743.943 1041.22 744.031C1039.06 741.109 1036.89 738.187 1034.72 735.265C1022.2 718.374 1010 700.65 1010 699.331C1010 698.887 1010 698.444 1010 698ZM1023 681C1030.19 670.11 1032.7 666.686 1033.22 666.365C1034.6 665.51 1044.85 672.868 1047.62 676.705C1048.41 677.803 1049.21 678.902 1050 680C1047.29 678.178 1050.78 683.362 1056 690.346C1071.02 710.42 1071.93 713 1064.03 713C1061.73 713 1060 713.479 1060 714.117C1060 715.858 1052.04 718.286 1046.45 718.25C1041.51 718.218 1041.24 718.053 1033.77 710.609C1027.72 704.58 1025.53 703 1023.19 703C1021.57 703 1019.69 702.325 1019 701.5C1018.31 700.675 1017.12 700 1016.35 700C1013.15 700 1014.08 696.695 1019.48 688.788C1022.59 684.229 1024.66 680.612 1024.07 680.75C1023.71 680.833 1023.36 680.917 1023 681ZM1019 594C1036.47 569.358 1039.93 564.66 1041.26 563.82C1041.94 563.386 1054.59 563.023 1069.36 563.015C1092.3 563.002 1096.13 563.209 1095.66 564.437C1094.91 566.402 1061.73 612.227 1056.34 618.75C1054.89 620.5 1053.45 622.25 1052 624C1052.04 622.062 1054.71 617.9 1057.96 613.5C1061.21 609.1 1064.83 604.15 1066 602.5C1067.17 600.85 1070.6 596.179 1073.61 592.12C1076.63 588.061 1078.96 584.064 1078.8 583.239C1078.63 582.414 1081.31 578.9 1084.75 575.43C1093.39 566.711 1093.18 565.617 1082.96 566.208C1078.54 566.464 1074.51 567.085 1074.01 567.588C1073.46 568.135 1073.46 570.096 1073.99 572.472C1074.73 575.723 1074.53 577.019 1072.92 579.622C1071.84 581.371 1070.29 583.057 1069.48 583.369C1068.67 583.681 1068 584.627 1068 585.469C1068 586.546 1066.98 587 1064.57 587C1061.79 587 1060.87 587.545 1059.69 589.91C1058.9 591.511 1058.47 594.098 1058.75 595.66C1059.21 598.238 1059.08 598.39 1057.38 597.309C1056.35 596.654 1053.92 596.077 1052 596.027C1047.93 595.922 1045.95 594.574 1044.27 590.77C1043.4 588.818 1042.55 588.202 1041.28 588.61C1039.68 589.123 1039.65 589.001 1040.97 587.398C1043.14 584.77 1043.13 582.777 1040.94 581.246C1039.87 580.498 1039 579.016 1039 577.952C1039 576.888 1038.17 575.5 1037.16 574.868C1034.51 573.214 1033.33 576.602 1035.66 579.173C1037.3 580.986 1037.23 581.046 1033.93 580.778C1030.85 580.528 1030.47 580.781 1030.18 583.25C1030.01 584.762 1029.37 586 1028.77 586C1028.17 586 1026.42 587.462 1024.88 589.25C1021.03 593.708 1020.61 594.107 1019.75 594.05C1019.5 594.033 1019.25 594.017 1019 594ZM938 688C945.09 676.901 947.263 674.439 950.5 673.831C952.042 673.542 952.5 672.664 952.5 670C952.5 665.578 954.803 664.986 958.538 668.448C960.053 669.852 962.014 671.003 962.896 671.006C963.778 671.009 965.789 671.684 967.364 672.506C968.939 673.328 971.414 674.016 972.864 674.035C974.314 674.055 976.625 674.695 978 675.458C979.375 676.221 981.683 676.61 983.129 676.322C984.575 676.034 986.061 676.29 986.432 676.89C986.881 677.617 988.05 677.284 989.93 675.894C992.83 673.75 996.043 673.626 996.711 675.633C996.918 676.256 994.818 679.743 992.044 683.383C990.363 685.589 988.681 687.794 987 690C981.447 694.049 979.224 694.916 978.344 694.578C977.487 694.249 974.945 694.476 972.696 695.082C969.123 696.044 968.439 695.953 967.278 694.365C966.213 692.909 965.506 692.754 963.724 693.587C962.035 694.377 960.227 694.17 956.208 692.726C952.099 691.25 950.6 691.088 949.502 691.999C948.724 692.645 947.606 692.874 947.016 692.51C946.426 692.146 944.494 691.67 942.722 691.453C940.95 691.236 939.162 690.371 938.75 689.53C938.5 689.02 938.25 688.51 938 688ZM989 622C997.641 631.023 1006.35 643.048 1005.13 644.269C1004.63 644.768 1003.37 644.016 1002.19 642.518C1000.13 639.901 1000.12 639.899 998.994 642.011C998.059 643.758 997.304 644.007 994.68 643.434C992.931 643.052 990.434 641.904 989.132 640.883C987.83 639.862 986.383 639.263 985.917 639.551C985.451 639.839 983.14 639.08 980.784 637.863C977.065 635.942 974.724 635.622 963.042 635.442C958.556 635.373 954.07 635.303 949.584 635.234C947.492 632.445 945.399 629.656 943.307 626.867C939.855 622.265 937.248 617.938 937.515 617.25C937.677 616.833 937.838 616.417 938 616C946.188 620.14 950.586 620.831 958 619.144C963.497 617.893 968.36 619.46 967.64 622.249C967.34 623.41 968.19 624.587 970.167 625.749C971.16 626.333 972.153 626.916 973.146 627.5C973.038 626.5 972.931 625.5 972.823 624.5C972.54 621.875 972.845 621.461 975.25 621.184C977.429 620.933 978.202 621.4 978.975 623.434C980.22 626.709 985 627.158 985 624C985 622.667 985.667 622 987 622C987.667 622 988.333 622 989 622ZM1125.07 667.512C1125.39 669.155 1125.7 672.209 1125.76 674.298C1125.86 677.483 1125.47 678.25 1123.37 679.048C1120.7 680.066 1107.71 680.373 1106.77 679.44C1105.8 678.47 1109.06 673.041 1111.33 671.84C1112.52 671.208 1115.29 669.17 1117.47 667.313C1122.13 663.342 1124.27 663.398 1125.07 667.512ZM989 617C990.667 619 992.333 621 994 623C990.043 619.513 988.918 618.163 988.947 617.75C988.965 617.5 988.982 617.25 989 617Z" fill="#2C77A9"/>
<path d="M935 618C927.907 609.087 918.795 596.738 910.174 584.806C904.949 577.575 899.725 570.342 894.5 563.111C903.72 563.092 912.941 563.075 922.161 563.056C931.381 563.037 940.602 563.019 949.822 563C950.602 563.955 951.381 564.911 952.161 565.866C955.316 569.733 972.799 593.815 981.75 606.625C984.167 610.083 986.583 613.542 989 617M935 618C934.998 617.75 934.996 617.5 934.994 617.25C934.991 616.837 935.665 616.388 938 616M935 618C936.884 620.75 938.768 623.5 940.652 626.25C943.761 630.788 949.46 638.744 953.317 643.931C955.654 647.075 957.992 650.218 960.329 653.362C951.553 665.908 942.776 678.454 934 691M989 617C988.296 616.833 987.593 616.667 986.889 616.5C987.241 617.417 987.592 618.333 987.944 619.25C988.296 620.167 988.648 621.083 989 622M989 617C988.982 617.25 988.965 617.5 988.947 617.75C988.918 618.163 990.043 619.513 994 623M989 617C990.667 619 992.333 621 994 623M938 616C946.188 620.14 950.586 620.831 958 619.144C963.497 617.893 968.36 619.46 967.64 622.249C967.34 623.41 968.19 624.587 970.167 625.749C971.16 626.333 972.153 626.916 973.146 627.5C973.038 626.5 972.931 625.5 972.823 624.5C972.54 621.875 972.845 621.461 975.25 621.184C977.429 620.933 978.202 621.4 978.975 623.434C980.22 626.709 985 627.158 985 624C985 622.667 985.667 622 987 622C987.667 622 988.333 622 989 622M938 616C937.838 616.417 937.677 616.833 937.515 617.25C937.248 617.938 939.855 622.265 943.307 626.867C945.399 629.656 947.492 632.445 949.584 635.234C954.07 635.303 958.556 635.373 963.042 635.442C974.724 635.622 977.065 635.942 980.784 637.863C983.14 639.08 985.451 639.839 985.917 639.551C986.383 639.263 987.83 639.862 989.132 640.883C990.434 641.904 992.931 643.052 994.68 643.434C997.304 644.007 998.059 643.758 998.994 642.011C1000.12 639.899 1000.13 639.901 1002.19 642.518C1003.37 644.016 1004.63 644.768 1005.13 644.269C1006.35 643.048 997.641 631.023 989 622M934 691C932.372 693.083 930.743 695.167 929.115 697.25C926.428 700.688 917.67 712.612 909.652 723.75C904.793 730.5 899.933 737.25 895.074 744C904.367 744 913.661 744 922.954 744C932.247 744 941.541 744 950.834 744C960.223 730.667 969.611 717.333 979 704M934 691C935.333 690 936.667 689 938 688M994 623C994 623.333 994 623.667 994 624C994.667 624.667 995.333 625.333 996 626C1002.72 635.25 1009.45 644.5 1016.17 653.75C1012.55 658.708 1008.92 663.667 1005.29 668.625C999.301 676.806 990.937 688.112 986.701 693.75C984.134 697.167 981.567 700.583 979 704M979 704C978.802 704 978.604 704 978.406 704C978.079 704 979.092 702.084 980.656 699.741C982.22 697.398 984.287 694.248 987 690M987 690C981.447 694.049 979.224 694.916 978.344 694.578C977.487 694.249 974.945 694.476 972.696 695.082C969.123 696.044 968.439 695.953 967.278 694.365C966.213 692.909 965.506 692.754 963.724 693.587C962.035 694.377 960.227 694.17 956.208 692.726C952.099 691.25 950.6 691.088 949.502 691.999C948.724 692.645 947.606 692.874 947.016 692.51C946.426 692.146 944.494 691.67 942.722 691.453C940.95 691.236 939.162 690.371 938.75 689.53C938.5 689.02 938.25 688.51 938 688M987 690C988.681 687.794 990.363 685.589 992.044 683.383C994.818 679.743 996.918 676.256 996.711 675.633C996.043 673.626 992.83 673.75 989.93 675.894C988.05 677.284 986.881 677.617 986.432 676.89C986.061 676.29 984.575 676.034 983.129 676.322C981.683 676.61 979.375 676.221 978 675.458C976.625 674.695 974.314 674.055 972.864 674.035C971.414 674.016 968.939 673.328 967.364 672.506C965.789 671.684 963.778 671.009 962.896 671.006C962.014 671.003 960.053 669.852 958.538 668.448C954.803 664.986 952.5 665.578 952.5 670C952.5 672.664 952.042 673.542 950.5 673.831C947.263 674.439 945.09 676.901 938 688M1019 594C1015.67 598.333 1012.33 602.667 1009 607C1013.42 613.318 1017.83 619.636 1022.25 625.954C1029.54 636.379 1036.02 644.929 1036.66 644.954C1038.15 645.013 1050.9 627.596 1052 624M1019 594C1019.25 594.017 1019.5 594.033 1019.75 594.05C1020.61 594.107 1021.03 593.708 1024.88 589.25C1026.42 587.462 1028.17 586 1028.77 586C1029.37 586 1030.01 584.762 1030.18 583.25C1030.47 580.781 1030.85 580.528 1033.93 580.778C1037.23 581.046 1037.3 580.986 1035.66 579.173C1033.33 576.602 1034.51 573.214 1037.16 574.868C1038.17 575.5 1039 576.888 1039 577.952C1039 579.016 1039.87 580.498 1040.94 581.246C1043.13 582.777 1043.14 584.77 1040.97 587.398C1039.65 589.001 1039.68 589.123 1041.28 588.61C1042.55 588.202 1043.4 588.818 1044.27 590.77C1045.95 594.574 1047.93 595.922 1052 596.027C1053.92 596.077 1056.35 596.654 1057.38 597.309C1059.08 598.39 1059.21 598.238 1058.75 595.66C1058.47 594.098 1058.9 591.511 1059.69 589.91C1060.87 587.545 1061.79 587 1064.57 587C1066.98 587 1068 586.546 1068 585.469C1068 584.627 1068.67 583.681 1069.48 583.369C1070.29 583.057 1071.84 581.371 1072.92 579.622C1074.53 577.019 1074.73 575.723 1073.99 572.472C1073.46 570.096 1073.46 568.135 1074.01 567.588C1074.51 567.085 1078.54 566.464 1082.96 566.208C1093.18 565.617 1093.39 566.711 1084.75 575.43C1081.31 578.9 1078.63 582.414 1078.8 583.239C1078.96 584.064 1076.63 588.061 1073.61 592.12C1070.6 596.179 1067.17 600.85 1066 602.5C1064.83 604.15 1061.21 609.1 1057.96 613.5C1054.71 617.9 1052.04 622.062 1052 624M1019 594C1036.47 569.358 1039.93 564.66 1041.26 563.82C1041.94 563.386 1054.59 563.023 1069.36 563.015C1092.3 563.002 1096.13 563.209 1095.66 564.437C1094.91 566.402 1061.73 612.227 1056.34 618.75C1054.89 620.5 1053.45 622.25 1052 624M1023 681C1018.67 686.667 1014.33 692.333 1010 698C1010 698.444 1010 698.887 1010 699.331C1010 700.65 1022.2 718.374 1034.72 735.265C1036.89 738.187 1039.06 741.109 1041.22 744.031C1050.46 743.943 1059.7 743.853 1068.93 743.765C1078.17 743.677 1087.4 743.588 1096.64 743.5C1084.76 727 1072.88 710.5 1061 694C1060 693 1059 692 1058 691C1058 690.667 1058 690.333 1058 690C1057.67 689.667 1057.33 689.333 1057 689C1054.67 686 1052.33 683 1050 680M1023 681C1023.36 680.917 1023.71 680.833 1024.07 680.75C1024.66 680.612 1022.59 684.229 1019.48 688.788C1014.08 696.695 1013.15 700 1016.35 700C1017.12 700 1018.31 700.675 1019 701.5C1019.69 702.325 1021.57 703 1023.19 703C1025.53 703 1027.72 704.58 1033.77 710.609C1041.24 718.053 1041.51 718.218 1046.45 718.25C1052.04 718.286 1060 715.858 1060 714.117C1060 713.479 1061.73 713 1064.03 713C1071.93 713 1071.02 710.42 1056 690.346C1050.78 683.362 1047.29 678.178 1050 680M1023 681C1030.19 670.11 1032.7 666.686 1033.22 666.365C1034.6 665.51 1044.85 672.868 1047.62 676.705C1048.41 677.803 1049.21 678.902 1050 680M1072.57 640.578C1077.27 634.021 1081.55 627.833 1082.09 626.828C1082.99 625.145 1084.76 625 1104.43 625C1111.55 625 1118.67 625 1125.79 625C1126.01 630.417 1126.24 635.833 1126.47 641.25C1126.84 650.188 1127 662.675 1126.82 669C1126.71 672.833 1126.61 676.667 1126.5 680.5C1119.33 680.5 1112.17 680.5 1105 680.5C1097.83 680.5 1090.67 680.5 1083.5 680.5C1080.25 676.177 1077 671.853 1073.75 667.53C1068.39 660.397 1064.01 654.097 1064.01 653.53C1064.02 652.963 1067.87 647.135 1072.57 640.578ZM1125.07 667.512C1124.27 663.398 1122.13 663.342 1117.47 667.313C1115.29 669.17 1112.52 671.208 1111.33 671.84C1109.06 673.041 1105.8 678.47 1106.77 679.44C1107.71 680.373 1120.7 680.066 1123.37 679.048C1125.47 678.25 1125.86 677.483 1125.76 674.298C1125.7 672.209 1125.39 669.155 1125.07 667.512Z" stroke="#2C77A9" stroke-width="0.5" stroke-linejoin="round"/>
</svg>
